ffmpeg started on 2026-03-22 at 17:08:04
Report written to "D:\Convert\FFMetrics\reports\psnr_report-6.txt"
Log level: 32
Command line:
ffmpeg -hide_banner -nostdin -r 24000/1001 -i "F:\\Convert\\files\\[DC] Make Heroine ga Oosugiru - 07_Telegram_HEVC(231).mkv" -r 24000/1001 -i "F:\\Convert\\files\\[DC] Make Heroine ga Oosugiru - 07_Telegram.mp4" -lavfi "[0:v]settb=AVTB,setpts=PTS-STARTPTS,format=pix_fmts=yuv420p10le,fps=24000/1001,scale=1920:1080:flags=lanczos:param0=3:out_range=limited:out_color_matrix=bt709:out_chroma_loc=left,setsar=1/1,setdar=(1920/1080)*(1/1),colorspace=format=yuv420p10:range=tv:primaries=bt709:trc=bt709:space=bt709:fast=0[main];[1:v]settb=AVTB,setpts=PTS-STARTPTS,format=pix_fmts=yuv420p,fps=24000/1001,scale=1920:1080:flags=lanczos:param0=3:out_range=limited:out_color_matrix=bt709:out_chroma_loc=left,setsar=1.000,setdar=1.778,colorspace=format=yuv420p:range=tv:primaries=bt709:trc=bt709:space=bt709:fast=0[ref];[main][ref]psnr=eof_action=endall:stats_file='D\\:/Convert/FFMetrics/logs/psnr_logfile-6.txt'" -f null -
Input #0, matroska,webm, from 'F:\Convert\files\[DC] Make Heroine ga Oosugiru - 07_Telegram_HEVC(231).mkv':
  Metadata:
    COMPATIBLE_BRANDS: isomiso2avc1mp41
    MAJOR_BRAND     : isom
    MINOR_VERSION   : 512
    ENCODER         : Lavf61.7.100
  Duration: 00:24:06.79, start: -0.021000, bitrate: 980 kb/s
  Stream #0:0: Video: hevc (Main 10), yuv420p10le(tv, bt709, progressive), 1920x1080 [SAR 1:1 DAR 16:9], 23.98 fps, 23.98 tbr, 1k tbn (default)
      Metadata:
        HANDLER_NAME    : VideoHandler
        VENDOR_ID       : [0][0][0][0]
        ENCODER         : Lavc61.19.100 libx265
        BPS             : 783519
        DURATION        : 00:24:06.569708333
        NUMBER_OF_FRAMES: 34683
        NUMBER_OF_BYTES : 141676934
        _STATISTICS_WRITING_APP: mkvpropedit v94.0 ('Initiate') 64-bit
        _STATISTICS_WRITING_DATE_UTC: 2026-03-21 13:20:55
        _STATISTICS_TAGS: BPS DURATION NUMBER_OF_FRAMES NUMBER_OF_BYTES
  Stream #0:1: Audio: aac (LC), 48000 Hz, stereo, fltp (default)
      Metadata:
        HANDLER_NAME    : SoundHandler
        VENDOR_ID       : [0][0][0][0]
        ENCODER         : Lavc61.19.100 aac
        BPS             : 193194
        DURATION        : 00:24:06.784000000
        NUMBER_OF_FRAMES: 67819
        NUMBER_OF_BYTES : 34938755
        _STATISTICS_WRITING_APP: mkvpropedit v94.0 ('Initiate') 64-bit
        _STATISTICS_WRITING_DATE_UTC: 2026-03-21 13:20:55
        _STATISTICS_TAGS: BPS DURATION NUMBER_OF_FRAMES NUMBER_OF_BYTES
Input #1, mov,mp4,m4a,3gp,3g2,mj2, from 'F:\Convert\files\[DC] Make Heroine ga Oosugiru - 07_Telegram.mp4':
  Metadata:
    major_brand     : isom
    minor_version   : 512
    compatible_brands: isomiso2avc1mp41
    encoder         : Lavf60.16.100
  Duration: 00:24:06.74, start: 0.000000, bitrate: 3764 kb/s
  Stream #1:0[0x1](und): Video: h264 (High) (avc1 / 0x31637661), yuv420p(tv, bt709, progressive), 1920x1080 [SAR 1:1 DAR 16:9], 3616 kb/s, 23.98 fps, 23.98 tbr, 24k tbn (default)
      Metadata:
        handler_name    : VideoHandler
        vendor_id       : [0][0][0][0]
        encoder         : Lavc60.31.102 h264_qsv
  Stream #1:1[0x2](und): Audio: aac (HE-AACv2) (mp4a / 0x6134706D), 48000 Hz, stereo, fltp, 144 kb/s (default)
      Metadata:
        handler_name    : SoundHandler
        vendor_id       : [0][0][0][0]
Stream mapping:
  Stream #0:0 (hevc) -> settb:default
  Stream #1:0 (h264) -> settb:default
  psnr:default -> Stream #0:0 (wrapped_avframe)
  Stream #0:1 -> #0:1 (aac (native) -> pcm_s16le (native))
Output #0, null, to 'pipe:':
  Metadata:
    COMPATIBLE_BRANDS: isomiso2avc1mp41
    MAJOR_BRAND     : isom
    MINOR_VERSION   : 512
    encoder         : Lavf61.7.100
  Stream #0:0: Video: wrapped_avframe, yuv420p10le(tv, bt709, progressive), 1920x1080 [SAR 1:1 DAR 16:9], q=2-31, 200 kb/s, 23.98 fps, 23.98 tbn
      Metadata:
        encoder         : Lavc61.19.100 wrapped_avframe
  Stream #0:1: Audio: pcm_s16le, 48000 Hz, stereo, s16, 1536 kb/s (default)
      Metadata:
        HANDLER_NAME    : SoundHandler
        VENDOR_ID       : [0][0][0][0]
        _STATISTICS_TAGS: BPS DURATION NUMBER_OF_FRAMES NUMBER_OF_BYTES
        BPS             : 193194
        DURATION        : 00:24:06.784000000
        NUMBER_OF_FRAMES: 67819
        NUMBER_OF_BYTES : 34938755
        _STATISTICS_WRITING_APP: mkvpropedit v94.0 ('Initiate') 64-bit
        _STATISTICS_WRITING_DATE_UTC: 2026-03-21 13:20:55
        encoder         : Lavc61.19.100 pcm_s16le
frame=  127 fps=0.0 q=-0.0 size=N/A time=00:00:05.29 bitrate=N/A speed=10.4x    frame=  327 fps=321 q=-0.0 size=N/A time=00:00:13.63 bitrate=N/A speed=13.4x    frame=  530 fps=343 q=-0.0 size=N/A time=00:00:22.10 bitrate=N/A speed=14.3x    frame=  725 fps=353 q=-0.0 size=N/A time=00:00:30.23 bitrate=N/A speed=14.7x    frame=  899 fps=350 q=-0.0 size=N/A time=00:00:37.49 bitrate=N/A speed=14.6x    frame= 1047 fps=338 q=-0.0 size=N/A time=00:00:43.66 bitrate=N/A speed=14.1x    frame= 1205 fps=334 q=-0.0 size=N/A time=00:00:50.25 bitrate=N/A speed=13.9x    frame= 1372 fps=333 q=-0.0 size=N/A time=00:00:57.22 bitrate=N/A speed=13.9x    frame= 1528 fps=330 q=-0.0 size=N/A time=00:01:03.73 bitrate=N/A speed=13.8x    frame= 1666 fps=324 q=-0.0 size=N/A time=00:01:09.48 bitrate=N/A speed=13.5x    frame= 1841 fps=325 q=-0.0 size=N/A time=00:01:16.78 bitrate=N/A speed=13.5x    frame= 2003 fps=324 q=-0.0 size=N/A time=00:01:23.54 bitrate=N/A speed=13.5x    frame= 2109 fps=315 q=-0.0 size=N/A time=00:01:27.96 bitrate=N/A speed=13.1x    frame= 2262 fps=314 q=-0.0 size=N/A time=00:01:34.34 bitrate=N/A speed=13.1x    frame= 2406 fps=312 q=-0.0 size=N/A time=00:01:40.35 bitrate=N/A speed=  13x    frame= 2544 fps=308 q=-0.0 size=N/A time=00:01:46.10 bitrate=N/A speed=12.9x    frame= 2705 fps=309 q=-0.0 size=N/A time=00:01:52.82 bitrate=N/A speed=12.9x    frame= 2879 fps=311 q=-0.0 size=N/A time=00:02:00.07 bitrate=N/A speed=  13x    frame= 3066 fps=313 q=-0.0 size=N/A time=00:02:07.87 bitrate=N/A speed=13.1x    frame= 3269 fps=317 q=-0.0 size=N/A time=00:02:16.34 bitrate=N/A speed=13.2x    frame= 3463 fps=320 q=-0.0 size=N/A time=00:02:24.43 bitrate=N/A speed=13.3x    frame= 3662 fps=323 q=-0.0 size=N/A time=00:02:32.73 bitrate=N/A speed=13.5x    frame= 3861 fps=326 q=-0.0 size=N/A time=00:02:41.03 bitrate=N/A speed=13.6x    frame= 4054 fps=328 q=-0.0 size=N/A time=00:02:49.08 bitrate=N/A speed=13.7x    frame= 4253 fps=330 q=-0.0 size=N/A time=00:02:57.38 bitrate=N/A speed=13.8x    frame= 4463 fps=333 q=-0.0 size=N/A time=00:03:06.14 bitrate=N/A speed=13.9x    frame= 4663 fps=335 q=-0.0 size=N/A time=00:03:14.48 bitrate=N/A speed=  14x    frame= 4857 fps=336 q=-0.0 size=N/A time=00:03:22.57 bitrate=N/A speed=  14x    frame= 5054 fps=338 q=-0.0 size=N/A time=00:03:30.79 bitrate=N/A speed=14.1x    frame= 5246 fps=339 q=-0.0 size=N/A time=00:03:38.80 bitrate=N/A speed=14.1x    frame= 5447 fps=340 q=-0.0 size=N/A time=00:03:47.18 bitrate=N/A speed=14.2x    frame= 5645 fps=342 q=-0.0 size=N/A time=00:03:55.44 bitrate=N/A speed=14.3x    frame= 5833 fps=343 q=-0.0 size=N/A time=00:04:03.28 bitrate=N/A speed=14.3x    frame= 6039 fps=344 q=-0.0 size=N/A time=00:04:11.87 bitrate=N/A speed=14.4x    frame= 6230 fps=345 q=-0.0 size=N/A time=00:04:19.84 bitrate=N/A speed=14.4x    frame= 6427 fps=346 q=-0.0 size=N/A time=00:04:28.05 bitrate=N/A speed=14.4x    frame= 6624 fps=347 q=-0.0 size=N/A time=00:04:36.27 bitrate=N/A speed=14.5x    frame= 6826 fps=348 q=-0.0 size=N/A time=00:04:44.70 bitrate=N/A speed=14.5x    frame= 7020 fps=349 q=-0.0 size=N/A time=00:04:52.79 bitrate=N/A speed=14.6x    frame= 7207 fps=349 q=-0.0 size=N/A time=00:05:00.59 bitrate=N/A speed=14.6x    frame= 7394 fps=350 q=-0.0 size=N/A time=00:05:08.39 bitrate=N/A speed=14.6x    frame= 7587 fps=350 q=-0.0 size=N/A time=00:05:16.44 bitrate=N/A speed=14.6x    frame= 7766 fps=350 q=-0.0 size=N/A time=00:05:23.90 bitrate=N/A speed=14.6x    frame= 7964 fps=351 q=-0.0 size=N/A time=00:05:32.16 bitrate=N/A speed=14.6x    frame= 8160 fps=352 q=-0.0 size=N/A time=00:05:40.34 bitrate=N/A speed=14.7x    frame= 8347 fps=352 q=-0.0 size=N/A time=00:05:48.13 bitrate=N/A speed=14.7x    frame= 8544 fps=353 q=-0.0 size=N/A time=00:05:56.35 bitrate=N/A speed=14.7x    frame= 8740 fps=353 q=-0.0 size=N/A time=00:06:04.53 bitrate=N/A speed=14.7x    frame= 8932 fps=353 q=-0.0 size=N/A time=00:06:12.53 bitrate=N/A speed=14.7x    frame= 9125 fps=354 q=-0.0 size=N/A time=00:06:20.58 bitrate=N/A speed=14.8x    frame= 9321 fps=354 q=-0.0 size=N/A time=00:06:28.76 bitrate=N/A speed=14.8x    frame= 9516 fps=355 q=-0.0 size=N/A time=00:06:36.89 bitrate=N/A speed=14.8x    frame= 9714 fps=355 q=-0.0 size=N/A time=00:06:45.15 bitrate=N/A speed=14.8x    frame= 9904 fps=356 q=-0.0 size=N/A time=00:06:53.07 bitrate=N/A speed=14.8x    frame=10102 fps=356 q=-0.0 size=N/A time=00:07:01.33 bitrate=N/A speed=14.8x    frame=10292 fps=356 q=-0.0 size=N/A time=00:07:09.26 bitrate=N/A speed=14.9x    frame=10477 fps=356 q=-0.0 size=N/A time=00:07:16.97 bitrate=N/A speed=14.9x    frame=10667 fps=357 q=-0.0 size=N/A time=00:07:24.90 bitrate=N/A speed=14.9x    frame=10864 fps=357 q=-0.0 size=N/A time=00:07:33.11 bitrate=N/A speed=14.9x    frame=11053 fps=357 q=-0.0 size=N/A time=00:07:41.00 bitrate=N/A speed=14.9x    frame=11243 fps=357 q=-0.0 size=N/A time=00:07:48.92 bitrate=N/A speed=14.9x    frame=11435 fps=358 q=-0.0 size=N/A time=00:07:56.93 bitrate=N/A speed=14.9x    frame=11637 fps=358 q=-0.0 size=N/A time=00:08:05.35 bitrate=N/A speed=14.9x    frame=11833 fps=358 q=-0.0 size=N/A time=00:08:13.53 bitrate=N/A speed=  15x    frame=12025 fps=359 q=-0.0 size=N/A time=00:08:21.54 bitrate=N/A speed=  15x    frame=12224 fps=359 q=-0.0 size=N/A time=00:08:29.84 bitrate=N/A speed=  15x    frame=12418 fps=359 q=-0.0 size=N/A time=00:08:37.93 bitrate=N/A speed=  15x    frame=12605 fps=359 q=-0.0 size=N/A time=00:08:45.73 bitrate=N/A speed=  15x    frame=12803 fps=360 q=-0.0 size=N/A time=00:08:53.99 bitrate=N/A speed=  15x    frame=12997 fps=360 q=-0.0 size=N/A time=00:09:02.08 bitrate=N/A speed=  15x    frame=13197 fps=360 q=-0.0 size=N/A time=00:09:10.42 bitrate=N/A speed=  15x    frame=13384 fps=360 q=-0.0 size=N/A time=00:09:18.22 bitrate=N/A speed=  15x    frame=13582 fps=361 q=-0.0 size=N/A time=00:09:26.48 bitrate=N/A speed=  15x    frame=13778 fps=361 q=-0.0 size=N/A time=00:09:34.65 bitrate=N/A speed=15.1x    frame=13972 fps=361 q=-0.0 size=N/A time=00:09:42.74 bitrate=N/A speed=15.1x    frame=14152 fps=361 q=-0.0 size=N/A time=00:09:50.25 bitrate=N/A speed=15.1x    frame=14345 fps=361 q=-0.0 size=N/A time=00:09:58.30 bitrate=N/A speed=15.1x    frame=14533 fps=361 q=-0.0 size=N/A time=00:10:06.14 bitrate=N/A speed=15.1x    frame=14736 fps=362 q=-0.0 size=N/A time=00:10:14.61 bitrate=N/A speed=15.1x    frame=14921 fps=362 q=-0.0 size=N/A time=00:10:22.33 bitrate=N/A speed=15.1x    frame=15103 fps=362 q=-0.0 size=N/A time=00:10:29.92 bitrate=N/A speed=15.1x    frame=15274 fps=361 q=-0.0 size=N/A time=00:10:37.05 bitrate=N/A speed=15.1x    frame=15475 fps=361 q=-0.0 size=N/A time=00:10:45.43 bitrate=N/A speed=15.1x    frame=15672 fps=362 q=-0.0 size=N/A time=00:10:53.65 bitrate=N/A speed=15.1x    frame=15859 fps=362 q=-0.0 size=N/A time=00:11:01.45 bitrate=N/A speed=15.1x    frame=16055 fps=362 q=-0.0 size=N/A time=00:11:09.62 bitrate=N/A speed=15.1x    frame=16258 fps=362 q=-0.0 size=N/A time=00:11:18.09 bitrate=N/A speed=15.1x    frame=16452 fps=362 q=-0.0 size=N/A time=00:11:26.18 bitrate=N/A speed=15.1x    frame=16640 fps=363 q=-0.0 size=N/A time=00:11:34.02 bitrate=N/A speed=15.1x    frame=16839 fps=363 q=-0.0 size=N/A time=00:11:42.32 bitrate=N/A speed=15.1x    frame=17040 fps=363 q=-0.0 size=N/A time=00:11:50.71 bitrate=N/A speed=15.1x    frame=17236 fps=363 q=-0.0 size=N/A time=00:11:58.88 bitrate=N/A speed=15.2x    frame=17430 fps=363 q=-0.0 size=N/A time=00:12:06.97 bitrate=N/A speed=15.2x    frame=17615 fps=363 q=-0.0 size=N/A time=00:12:14.69 bitrate=N/A speed=15.2x    frame=17813 fps=364 q=-0.0 size=N/A time=00:12:22.95 bitrate=N/A speed=15.2x    frame=18007 fps=364 q=-0.0 size=N/A time=00:12:31.04 bitrate=N/A speed=15.2x    frame=18195 fps=364 q=-0.0 size=N/A time=00:12:38.88 bitrate=N/A speed=15.2x    frame=18381 fps=364 q=-0.0 size=N/A time=00:12:46.64 bitrate=N/A speed=15.2x    frame=18581 fps=364 q=-0.0 size=N/A time=00:12:54.98 bitrate=N/A speed=15.2x    frame=18773 fps=364 q=-0.0 size=N/A time=00:13:02.99 bitrate=N/A speed=15.2x    frame=18968 fps=364 q=-0.0 size=N/A time=00:13:11.12 bitrate=N/A speed=15.2x    frame=19164 fps=364 q=-0.0 size=N/A time=00:13:19.29 bitrate=N/A speed=15.2x    frame=19368 fps=365 q=-0.0 size=N/A time=00:13:27.80 bitrate=N/A speed=15.2x    frame=19567 fps=365 q=-0.0 size=N/A time=00:13:36.10 bitrate=N/A speed=15.2x    frame=19763 fps=365 q=-0.0 size=N/A time=00:13:44.28 bitrate=N/A speed=15.2x    frame=19957 fps=365 q=-0.0 size=N/A time=00:13:52.37 bitrate=N/A speed=15.2x    frame=20160 fps=365 q=-0.0 size=N/A time=00:14:00.84 bitrate=N/A speed=15.2x    frame=20356 fps=365 q=-0.0 size=N/A time=00:14:09.01 bitrate=N/A speed=15.2x    frame=20539 fps=365 q=-0.0 size=N/A time=00:14:16.64 bitrate=N/A speed=15.2x    frame=20719 fps=365 q=-0.0 size=N/A time=00:14:24.15 bitrate=N/A speed=15.2x    frame=20920 fps=365 q=-0.0 size=N/A time=00:14:32.53 bitrate=N/A speed=15.2x    frame=21113 fps=366 q=-0.0 size=N/A time=00:14:40.58 bitrate=N/A speed=15.2x    frame=21297 fps=365 q=-0.0 size=N/A time=00:14:48.26 bitrate=N/A speed=15.2x    frame=21496 fps=366 q=-0.0 size=N/A time=00:14:56.56 bitrate=N/A speed=15.2x    frame=21697 fps=366 q=-0.0 size=N/A time=00:15:04.94 bitrate=N/A speed=15.3x    frame=21888 fps=366 q=-0.0 size=N/A time=00:15:12.91 bitrate=N/A speed=15.3x    frame=22088 fps=366 q=-0.0 size=N/A time=00:15:21.25 bitrate=N/A speed=15.3x    frame=22289 fps=366 q=-0.0 size=N/A time=00:15:29.63 bitrate=N/A speed=15.3x    frame=22480 fps=366 q=-0.0 size=N/A time=00:15:37.60 bitrate=N/A speed=15.3x    frame=22679 fps=366 q=-0.0 size=N/A time=00:15:45.90 bitrate=N/A speed=15.3x    frame=22869 fps=367 q=-0.0 size=N/A time=00:15:53.82 bitrate=N/A speed=15.3x    frame=23070 fps=367 q=-0.0 size=N/A time=00:16:02.21 bitrate=N/A speed=15.3x    frame=23266 fps=367 q=-0.0 size=N/A time=00:16:10.38 bitrate=N/A speed=15.3x    frame=23454 fps=367 q=-0.0 size=N/A time=00:16:18.22 bitrate=N/A speed=15.3x    frame=23656 fps=367 q=-0.0 size=N/A time=00:16:26.65 bitrate=N/A speed=15.3x    frame=23860 fps=367 q=-0.0 size=N/A time=00:16:35.16 bitrate=N/A speed=15.3x    frame=24057 fps=367 q=-0.0 size=N/A time=00:16:43.37 bitrate=N/A speed=15.3x    frame=24250 fps=367 q=-0.0 size=N/A time=00:16:51.42 bitrate=N/A speed=15.3x    frame=24445 fps=367 q=-0.0 size=N/A time=00:16:59.56 bitrate=N/A speed=15.3x    frame=24648 fps=368 q=-0.0 size=N/A time=00:17:08.02 bitrate=N/A speed=15.3x    frame=24835 fps=368 q=-0.0 size=N/A time=00:17:15.82 bitrate=N/A speed=15.3x    frame=25033 fps=368 q=-0.0 size=N/A time=00:17:24.08 bitrate=N/A speed=15.3x    frame=25237 fps=368 q=-0.0 size=N/A time=00:17:32.59 bitrate=N/A speed=15.3x    frame=25431 fps=368 q=-0.0 size=N/A time=00:17:40.68 bitrate=N/A speed=15.3x    frame=25625 fps=368 q=-0.0 size=N/A time=00:17:48.77 bitrate=N/A speed=15.4x    frame=25814 fps=368 q=-0.0 size=N/A time=00:17:56.65 bitrate=N/A speed=15.4x    frame=26017 fps=368 q=-0.0 size=N/A time=00:18:05.12 bitrate=N/A speed=15.4x    frame=26211 fps=368 q=-0.0 size=N/A time=00:18:13.21 bitrate=N/A speed=15.4x    frame=26408 fps=368 q=-0.0 size=N/A time=00:18:21.43 bitrate=N/A speed=15.4x    frame=26607 fps=369 q=-0.0 size=N/A time=00:18:29.73 bitrate=N/A speed=15.4x    frame=26806 fps=369 q=-0.0 size=N/A time=00:18:38.03 bitrate=N/A speed=15.4x    frame=26989 fps=369 q=-0.0 size=N/A time=00:18:45.66 bitrate=N/A speed=15.4x    frame=27171 fps=368 q=-0.0 size=N/A time=00:18:53.25 bitrate=N/A speed=15.4x    frame=27358 fps=368 q=-0.0 size=N/A time=00:19:01.05 bitrate=N/A speed=15.4x    frame=27549 fps=368 q=-0.0 size=N/A time=00:19:09.02 bitrate=N/A speed=15.4x    frame=27731 fps=368 q=-0.0 size=N/A time=00:19:16.61 bitrate=N/A speed=15.4x    frame=27922 fps=368 q=-0.0 size=N/A time=00:19:24.58 bitrate=N/A speed=15.4x    frame=28119 fps=368 q=-0.0 size=N/A time=00:19:32.79 bitrate=N/A speed=15.4x    frame=28307 fps=368 q=-0.0 size=N/A time=00:19:40.63 bitrate=N/A speed=15.4x    frame=28498 fps=368 q=-0.0 size=N/A time=00:19:48.60 bitrate=N/A speed=15.4x    frame=28695 fps=369 q=-0.0 size=N/A time=00:19:56.82 bitrate=N/A speed=15.4x    frame=28864 fps=368 q=-0.0 size=N/A time=00:20:03.86 bitrate=N/A speed=15.4x    frame=29022 fps=368 q=-0.0 size=N/A time=00:20:10.45 bitrate=N/A speed=15.3x    frame=29207 fps=368 q=-0.0 size=N/A time=00:20:18.17 bitrate=N/A speed=15.3x    frame=29387 fps=368 q=-0.0 size=N/A time=00:20:25.68 bitrate=N/A speed=15.3x    frame=29561 fps=367 q=-0.0 size=N/A time=00:20:32.94 bitrate=N/A speed=15.3x    frame=29729 fps=367 q=-0.0 size=N/A time=00:20:39.94 bitrate=N/A speed=15.3x    frame=29904 fps=367 q=-0.0 size=N/A time=00:20:47.24 bitrate=N/A speed=15.3x    frame=30057 fps=367 q=-0.0 size=N/A time=00:20:53.62 bitrate=N/A speed=15.3x    frame=30248 fps=367 q=-0.0 size=N/A time=00:21:01.59 bitrate=N/A speed=15.3x    frame=30435 fps=367 q=-0.0 size=N/A time=00:21:09.39 bitrate=N/A speed=15.3x    frame=30629 fps=367 q=-0.0 size=N/A time=00:21:17.48 bitrate=N/A speed=15.3x    frame=30822 fps=367 q=-0.0 size=N/A time=00:21:25.53 bitrate=N/A speed=15.3x    frame=31008 fps=367 q=-0.0 size=N/A time=00:21:33.29 bitrate=N/A speed=15.3x    frame=31203 fps=367 q=-0.0 size=N/A time=00:21:41.42 bitrate=N/A speed=15.3x    frame=31394 fps=367 q=-0.0 size=N/A time=00:21:49.39 bitrate=N/A speed=15.3x    frame=31584 fps=367 q=-0.0 size=N/A time=00:21:57.31 bitrate=N/A speed=15.3x    frame=31774 fps=367 q=-0.0 size=N/A time=00:22:05.24 bitrate=N/A speed=15.3x    frame=31951 fps=367 q=-0.0 size=N/A time=00:22:12.62 bitrate=N/A speed=15.3x    frame=32128 fps=366 q=-0.0 size=N/A time=00:22:20.00 bitrate=N/A speed=15.3x    frame=32318 fps=367 q=-0.0 size=N/A time=00:22:27.92 bitrate=N/A speed=15.3x    frame=32509 fps=367 q=-0.0 size=N/A time=00:22:35.89 bitrate=N/A speed=15.3x    frame=32666 fps=366 q=-0.0 size=N/A time=00:22:42.44 bitrate=N/A speed=15.3x    frame=32810 fps=366 q=-0.0 size=N/A time=00:22:48.45 bitrate=N/A speed=15.3x    frame=32982 fps=365 q=-0.0 size=N/A time=00:22:55.62 bitrate=N/A speed=15.2x    frame=33151 fps=365 q=-0.0 size=N/A time=00:23:02.67 bitrate=N/A speed=15.2x    frame=33314 fps=365 q=-0.0 size=N/A time=00:23:09.47 bitrate=N/A speed=15.2x    frame=33483 fps=365 q=-0.0 size=N/A time=00:23:16.52 bitrate=N/A speed=15.2x    frame=33636 fps=364 q=-0.0 size=N/A time=00:23:22.90 bitrate=N/A speed=15.2x    frame=33770 fps=364 q=-0.0 size=N/A time=00:23:28.49 bitrate=N/A speed=15.2x    frame=33895 fps=363 q=-0.0 size=N/A time=00:23:33.70 bitrate=N/A speed=15.1x    frame=34062 fps=363 q=-0.0 size=N/A time=00:23:40.66 bitrate=N/A speed=15.1x    frame=34228 fps=363 q=-0.0 size=N/A time=00:23:47.59 bitrate=N/A speed=15.1x    frame=34360 fps=362 q=-0.0 size=N/A time=00:23:53.09 bitrate=N/A speed=15.1x    frame=34492 fps=362 q=-0.0 size=N/A time=00:23:58.60 bitrate=N/A speed=15.1x    [Parsed_psnr_16 @ 0000011072a64940] PSNR y:48.976886 u:50.341350 v:50.391973 average:49.392592 min:38.024394 max:inf
[out#0/null @ 000001106595e740] video:14903KiB audio:271276KiB subtitle:0KiB other streams:0KiB global headers:0KiB muxing overhead: unknown
frame=34683 fps=362 q=-0.0 Lsize=N/A time=00:24:06.57 bitrate=N/A speed=15.1x    
